{  "asset": {    "version": "2.0",    "generator": "THREE.GLTFExporter"  },  "scenes": [    {      "name": "AuxScene",      "nodes": [        1      ]    }  ],  "scene": 0,  "nodes": [    {      "mesh": 0    },    {      "children": [        0      ]    }  ],  "bufferViews": [    {      "buffer": 0,      "byteOffset": 0,      "byteLength": 50400,      "target": 34962,      "byteStride": 12    },    {      "buffer": 0,      "byteOffset": 50400,      "byteLength": 50400,      "target": 34962,      "byteStride": 12    }  ],  "buffers": [    {      "byteLength": 100800,      "uri": "data:application/octet-stream;base64,"    }  ],  "accessors": [    {      "bufferView": 0,      "componentType": 5126,      "count": 4200,      "max": [        30.36625862121582,        5.631372451782227,        29.998746871948242      ],      "min": [        -30.36625862121582,        -5.631371974945068,        -29.998741149902344      ],      "type": "VEC3"    },    {      "bufferView": 1,      "componentType": 5126,      "count": 4200,      "max": [        0.999908447265625,        1,        0.99908447265625      ],      "min": [        -0.999908447265625,        -1,        -0.999847412109375      ],      "type": "VEC3"    }  ],  "materials": [    {      "pbrMetallicRoughness": {        "metallicFactor": 0.5,        "roughnessFactor": 0.5      },      "doubleSided": true,      "name": "mat0"    }  ],  "meshes": [    {      "primitives": [        {          "mode": 4,          "attributes": {            "POSITION": 0,            "NORMAL": 1          },          "material": 0        }      ]    }  ]}